<?xml version="1.0" encoding="UTF-8" standalone="no"?>
<!DOCTYPE svg PUBLIC "-//W3C//DTD SVG 1.1//EN" "http://www.w3.org/Graphics/SVG/1.1/DTD/svg11.dtd">
<svg width="100%" height="100%" viewBox="0 0 144 144" version="1.1" xmlns="http://www.w3.org/2000/svg" xmlns:xlink="http://www.w3.org/1999/xlink" xml:space="preserve" xmlns:serif="http://www.serif.com/" style="fill-rule:evenodd;clip-rule:evenodd;stroke-linejoin:round;stroke-miterlimit:1.5;">
    <g transform="matrix(0.99685,0,0,0.995519,0.226797,-0.000154104)">
        <path d="M144.228,36.128L144.228,108.452C144.228,128.41 128.045,144.614 108.114,144.614L35.886,144.614C15.955,144.614 -0.228,128.41 -0.228,108.452L-0.228,36.128C-0.228,16.169 15.955,-0.034 35.886,-0.034L108.114,-0.034C128.045,-0.034 144.228,16.169 144.228,36.128Z" style="fill:white;"/>
        <clipPath id="_clip1">
            <path d="M144.228,36.128L144.228,108.452C144.228,128.41 128.045,144.614 108.114,144.614L35.886,144.614C15.955,144.614 -0.228,128.41 -0.228,108.452L-0.228,36.128C-0.228,16.169 15.955,-0.034 35.886,-0.034L108.114,-0.034C128.045,-0.034 144.228,16.169 144.228,36.128Z"/>
        </clipPath>
        <g clip-path="url(#_clip1)">
            <g transform="matrix(1.00316,0,0,1.0045,-0.227513,0.000154797)">
                <path d="M36,143.966C16.131,143.966 0,127.835 0,107.966L0,35.966C0,16.097 16.131,-0.034 36,-0.034L36,143.966Z" style="fill:rgb(255,161,159);"/>
            </g>
        </g>
        <path d="M144.228,36.128L144.228,108.452C144.228,128.41 128.045,144.614 108.114,144.614L35.886,144.614C15.955,144.614 -0.228,128.41 -0.228,108.452L-0.228,36.128C-0.228,16.169 15.955,-0.034 35.886,-0.034L108.114,-0.034C128.045,-0.034 144.228,16.169 144.228,36.128ZM139.746,36.128C139.746,18.646 125.572,4.454 108.114,4.454L35.886,4.454C18.428,4.454 4.254,18.646 4.254,36.128L4.254,108.452C4.254,125.933 18.428,140.126 35.886,140.126L108.114,140.126C125.572,140.126 139.746,125.933 139.746,108.452L139.746,36.128Z"/>
    </g>
    <path d="M36,-0.034L36,143.966" style="fill:none;stroke:black;stroke-width:4.47px;"/>
</svg>
